{"title":"The Expendables 2 2012 R6 READNFO XViD   TAKEAWAYZ","uid":7631163,"size":1142643886,"categoryP":"video","categoryS":"movies","magnet":"?xt=urn:btih:196037a2ab8c80c7b4bb4881020dd75a0cdfbfac&amp;dn=The+Expendables+2+2012+R6+READNFO+XViD+++TAKEAWAYZ&amp;tr=udp%3A%2F%2Ftracker.openbittorrent.com%3A80&amp;tr=udp%3A%2F%2Fopen.demonii.com%3A1337&amp;tr=udp%3A%2F%2Ftracker.coppersurfer.tk%3A6969&amp;tr=udp%3A%2F%2Fexodus.desync.com%3A6969","seeders":0,"leechers":1,"uploader":"FlairDevil","files":-1,"time":1347542099,"description":"Everybody loves a TAKEAWAY...\n\nFormat                           : AVI\nFormat/Info                      : Audio Video Interleave\nFile size                        : 1.06 GiB\nDuration                         : 1h 42mn\nOverall bit rate                 : 1 485 Kbps\n\nVideo\nID                               : 0\nFormat                           : MPEG-4 Visual\nFormat profile                   : Advanced Simple@L5\nFormat settings, BVOP            : 2\nFormat settings, QPel            : No\nFormat settings, GMC             : No warppoints\nFormat settings, Matrix          : Default (H.263)\nMuxing mode                      : Packed bitstream\nCodec ID                         : XVID\nCodec ID/Hint                    : XviD\nDuration                         : 1h 42mn\nBit rate                         : 1 349 Kbps\nWidth                            : 720 pixels\nHeight                           : 320 pixels\nDisplay aspect ratio             : 2.25:1\nFrame rate                       : 23.067 fps\nOriginal frame rate              : 23.976 fps\nColor space                      : YUV\nChroma subsampling               : 4:2:0\nBit depth                        : 8 bits\nScan type                        : Progressive\nCompression mode                 : Lossy\nBits/(Pixel*Frame)               : 0.254\nStream size                      : 989 MiB (91%)\nWriting library                  : XviD 64\n\nAudio\nID                               : 1\nFormat                           : MPEG Audio\nFormat version                   : Version 1\nFormat profile                   : Layer 3\nMode                             : Joint stereo\nMode extension                   : MS Stereo\nCodec ID                         : 55\nCodec ID/Hint                    : MP3\nDuration                         : 1h 42mn\nBit rate mode                    : Constant\nBit rate                         : 128 Kbps\nChannel(s)                       : 2 channels\nSampling rate                    : 44.1 KHz\nCompression mode                 : Lossy\nStream size                      : 93.7 MiB (9%)\nAlignment                        : Split accross interleaves\nInterleave, duration             : 43 ms (1.00 video frame)\nInterleave, preload duration     : 500 ms\n\nSubtitles                        : Hardcoded English Subs When Needed.\n &lt;a href=&quot;\nhttp://www.imdb.com/title/tt1764651/&quot; rel=&quot;nofollow&quot; target=&quot;_NEW&quot;&gt;\nhttp://www.imdb.com/title/tt1764651/&lt;/a&gt;\n\nMr. Church reunites the Expendables for what should be an easy \npaycheck, but when one of their men is murdered on the job, their \nquest for revenge puts them deep in enemy territory and up against \nan unexpected threat.\n\nNotes: Video has a watermark that appears and then disappears,\nthe watermark will fade and then pop up in another corner of the\nvideo. Unlike the other video this doesn't have hardcoded foreign\nsubtitles for all the speaking parts. The audio IS English and\nappears to be LiNE audio (If not it is damn good) It will drift in and \nout of sync a little but you get used to it after a bit. Don't know\nwhat else to say...","torrent":{"xt":"urn:btih:196037a2ab8c80c7b4bb4881020dd75a0cdfbfac","amp;dn":"The+Expendables+2+2012+R6+READNFO+XViD+++TAKEAWAYZ","amp;tr":["udp%3A%2F%2Ftracker.openbittorrent.com%3A80","udp%3A%2F%2Fopen.demonii.com%3A1337","udp%3A%2F%2Ftracker.coppersurfer.tk%3A6969","udp%3A%2F%2Fexodus.desync.com%3A6969"],"infoHash":"196037a2ab8c80c7b4bb4881020dd75a0cdfbfac","infoHashBuffer":{"type":"Buffer","data":[25,96,55,162,171,140,128,199,180,187,72,129,2,13,215,90,12,223,191,172]},"announce":[],"urlList":[]}}